<svg width="28" height="27" viewBox="0 0 28 27" fill="none" xmlns="http://www.w3.org/2000/svg">
<rect x="0.5" y="0.5" width="27" height="26" rx="11.5" stroke="black"/>
<path d="M22.1665 23.625H23.3453C24.4783 23.625 25.0448 23.625 25.3571 23.3972C25.6291 23.1987 25.7975 22.8954 25.8178 22.5671C25.8412 22.1901 25.5269 21.7356 24.8984 20.8265L21.3863 15.7465C20.867 14.9954 20.6074 14.6198 20.2801 14.4889C19.994 14.3745 19.6724 14.3745 19.3863 14.4889C19.059 14.6198 18.7993 14.9954 18.28 15.7465L17.4118 17.0024M22.1665 23.625L13.2013 11.1377C12.6857 10.4195 12.4279 10.0605 12.1058 9.93424C11.8241 9.82382 11.5089 9.82382 11.2272 9.93424C10.9051 10.0605 10.6473 10.4195 10.1317 11.1377L3.1944 20.8004C2.53754 21.7153 2.20911 22.1728 2.22781 22.5533C2.24409 22.8846 2.41118 23.1921 2.68442 23.3936C2.99817 23.625 3.57517 23.625 4.72916 23.625H22.1665ZM24.4998 6.75C24.4998 8.61396 22.9328 10.125 20.9998 10.125C19.0668 10.125 17.4998 8.61396 17.4998 6.75C17.4998 4.88604 19.0668 3.375 20.9998 3.375C22.9328 3.375 24.4998 4.88604 24.4998 6.75Z" stroke="black" stroke-width="2" stroke-linecap="round" stroke-linejoin="round"/>
</svg>
